<?xml version="1.0" encoding="utf-8"?>
<!-- Generator: Adobe Illustrator 24.1.1, SVG Export Plug-In . SVG Version: 6.00 Build 0)  -->
<svg version="1.1"
	 id="Layer_1" xmlns:cc="http://creativecommons.org/ns#" xmlns:dc="http://purl.org/dc/elements/1.1/" xmlns:inkscape="http://www.inkscape.org/namespaces/inkscape" xmlns:rdf="http://www.w3.org/1999/02/22-rdf-syntax-ns#" xmlns:sodipodi="http://sodipodi.sourceforge.net/DTD/sodipodi-0.dtd" xmlns:svg="http://www.w3.org/2000/svg"
	 xmlns="http://www.w3.org/2000/svg" xmlns:xlink="http://www.w3.org/1999/xlink" x="0px" y="0px" viewBox="0 0 512 512"
	 style="enable-background:new 0 0 512 512;" xml:space="preserve">
<style type="text/css">
	.st0{fill:#FFFFFF;}
</style>
<path id="path9-5" class="st0" d="M111.8,239.2c-0.6,0,7,16.1,7.2,16.1c16.6,29.6,48.6,48,102.5,53.1c-7.7,5.7-16.9,16.7-18.2,29.3
	c-9.7,6.1-29.1,8.2-44.3,3.5c-21.2-6.6-29.3-47.8-61.1-42c-6.9,1.3-5.5,5.7,0.4,9.5c9.7,6.2,18.8,13.9,25.8,30.3
	c5.4,12.6,16.8,35.1,52.6,35.1c14.2,0,24.2-1.7,24.2-1.7s0.3,32.1,0.3,44.6c0,14.4-19.8,18.5-19.8,25.4c0,2.7,6.6,3,11.8,3
	c10.4,0,32-8.5,32-23.5c0-11.9,0.2-51.9,0.2-58.9c0-15.3,8.3-20.1,8.3-20.1s1,81.7-2,92.6c-3.6,12.9-10,11-10,16.8
	c0,8.5,26.1,2.1,34.7-16.7c6.7-14.6,3.8-94.7,3.8-94.7l7.1-0.1c0,0,0.4,36.7,0.2,53.4c-0.2,17.4-1.5,39.3,9,49.7
	c6.9,6.8,29.2,18.8,29.2,7.8c0-6.3-12.2-11.5-12.2-28.7v-79c9.8,0,8.3,26,8.3,26l0.7,48.3c0,0-2.2,17.6,19.4,24.9
	c7.6,2.6,23.8,3.3,24.6-1.1c0.8-4.4-19.6-10.9-19.7-24.5c-0.1-8.3,0.4-13.1,0.4-49.2c0-36.1-4.9-49.4-22.1-60.1
	c53-5.3,85.9-18.3,101.9-52.8c1.2,0,6.5-16.1,5.8-16.1c3.6-13,5.5-28.5,5.9-46.7c-0.1-49.5-24.2-67.1-28.8-75.3
	c6.8-37.5-1.1-54.6-4.8-60.4C371.4,52,337.5,69.1,319,81.1c-30.2-8.7-93.9-7.8-117.9,2.2c-44.1-31.1-67.5-26.3-67.5-26.3
	s-15.1,26.6-4,65.5c-14.5,18.2-25.3,31.1-25.3,65.2C104.3,206.9,106.6,224.1,111.8,239.2L111.8,239.2z"/>
</svg>
