<?xml version="1.0" encoding="utf-8"?>
<!-- Generator: Adobe Illustrator 24.1.1, SVG Export Plug-In . SVG Version: 6.00 Build 0)  -->
<svg version="1.1"
	 id="Layer_1" xmlns:cc="http://creativecommons.org/ns#" xmlns:dc="http://purl.org/dc/elements/1.1/" xmlns:inkscape="http://www.inkscape.org/namespaces/inkscape" xmlns:rdf="http://www.w3.org/1999/02/22-rdf-syntax-ns#" xmlns:sodipodi="http://sodipodi.sourceforge.net/DTD/sodipodi-0.dtd" xmlns:svg="http://www.w3.org/2000/svg"
	 xmlns="http://www.w3.org/2000/svg" xmlns:xlink="http://www.w3.org/1999/xlink" x="0px" y="0px" viewBox="0 0 512 512"
	 style="enable-background:new 0 0 512 512;" xml:space="preserve">
<style type="text/css">
	.st0{fill:#FFFFFF;}
</style>
<path id="path9-6" class="st0" d="M366.4,76H145.6C107.2,76,76,107.2,76,145.6v73.5v147.4c0,38.4,31.2,69.6,69.6,69.6h220.9
	c38.4,0,69.6-31.2,69.6-69.6V219v-73.5C436,107.2,404.8,76,366.4,76L366.4,76z M386.4,117.5l8,0v7.9v53.1l-60.8,0.2l-0.2-61
	L386.4,117.5L386.4,117.5z M204.6,219c11.5-16,30.2-26.4,51.4-26.4c21.1,0,39.9,10.5,51.4,26.4c7.5,10.4,12,23.2,12,36.9
	c0,34.9-28.5,63.4-63.4,63.4c-34.9,0-63.4-28.4-63.4-63.4C192.6,242.2,197.1,229.5,204.6,219L204.6,219z M400.9,366.4
	c0,19-15.5,34.5-34.5,34.5H145.6c-19,0-34.5-15.5-34.5-34.5V219h53.7c-4.6,11.4-7.3,23.9-7.3,36.9c0,54.3,44.2,98.4,98.4,98.4
	c54.3,0,98.4-44.2,98.4-98.4c0-13.1-2.6-25.5-7.3-36.9h53.7L400.9,366.4L400.9,366.4z"/>
</svg>
