<?xml version="1.0" encoding="utf-8"?>
<!-- Generator: Adobe Illustrator 24.1.1, SVG Export Plug-In . SVG Version: 6.00 Build 0)  -->
<svg version="1.1"
	 id="Layer_1" xmlns:cc="http://creativecommons.org/ns#" xmlns:dc="http://purl.org/dc/elements/1.1/" xmlns:inkscape="http://www.inkscape.org/namespaces/inkscape" xmlns:rdf="http://www.w3.org/1999/02/22-rdf-syntax-ns#" xmlns:sodipodi="http://sodipodi.sourceforge.net/DTD/sodipodi-0.dtd" xmlns:svg="http://www.w3.org/2000/svg"
	 xmlns="http://www.w3.org/2000/svg" xmlns:xlink="http://www.w3.org/1999/xlink" x="0px" y="0px" viewBox="0 0 512 512"
	 style="enable-background:new 0 0 512 512;" xml:space="preserve">
<style type="text/css">
	.st0{fill:#FFFFFF;}
</style>
<path id="Spotify" class="st0" d="M126.6,408.4c30.8-44.4,82-73.5,140.1-73.5c52.9,0,100,24.2,131.3,62c35.8-36.1,58-85.9,58-140.8
	c0-110.5-89.5-200-200-200C145.5,56,56,145.5,56,256C56,317.1,83.5,371.7,126.6,408.4L126.6,408.4z M362.9,316
	c-2.9,6.5-8.1,7.8-14.2,5c-26.6-12.3-56.3-19.2-87.5-19.2c-32.1,0-62.5,7.3-89.6,20.2c-2.9,1.4-9.3,2-12.2-6.3
	c-2.9-8.3,1.7-13,4.3-14.2c29.7-13.9,62.7-21.7,97.6-21.7c34.3,0,67.3,6.5,96,21C361.7,303,365.8,309.5,362.9,316L362.9,316z
	 M379.9,264.9c-2.1,2.9-5.3,4.9-9.1,4.9c-1.1,0-2-0.3-3-0.6c-32.6-14.4-68.7-22.5-106.6-22.5c-37.7,0-73.5,8-105.9,22.2
	c-1.2,0.4-2.4,0.8-3.7,0.8c-3.9,0-7.2-2.1-9.2-5.1l-2.2-6.5c0-3.4,1.6-6.3,4-8.3c35.8-16,75.3-25.1,117.1-25.1
	c41.7,0,81.3,9,117,25.1c2.4,2,3.9,5,4,8.4L379.9,264.9z M129.6,184.1c40.7-16.4,85-25.6,131.6-25.6c46.1,0,90.1,9,130.5,25.1
	c5.5,2.8,9.3,8.3,9.3,14.8c0,9.3-7.5,16.8-16.8,16.8c-1.3,0-2.5-0.3-3.7-0.6c-36.9-14.9-77.1-23.1-119.2-23.1
	c-42.2,0-82.4,8.3-119.3,23.2c-1.2,0.3-2.4,0.5-3.6,0.5c-9.3,0-16.8-7.5-16.8-16.8C121.4,192.4,124.7,187.1,129.6,184.1L129.6,184.1
	z M266.7,400.9c-33.9,0-63.9,16.3-83,41.4C206.1,451,230.5,456,256,456c31.7,0,61.5-7.5,88.1-20.6
	C324.9,414.2,297.4,400.9,266.7,400.9L266.7,400.9z"/>
</svg>
