<?xml version="1.0" encoding="utf-8"?>
<!-- Generator: Adobe Illustrator 24.1.1, SVG Export Plug-In . SVG Version: 6.00 Build 0)  -->
<svg version="1.1"
	 id="Layer_1" xmlns:cc="http://creativecommons.org/ns#" xmlns:dc="http://purl.org/dc/elements/1.1/" xmlns:inkscape="http://www.inkscape.org/namespaces/inkscape" xmlns:rdf="http://www.w3.org/1999/02/22-rdf-syntax-ns#" xmlns:sodipodi="http://sodipodi.sourceforge.net/DTD/sodipodi-0.dtd" xmlns:svg="http://www.w3.org/2000/svg"
	 xmlns="http://www.w3.org/2000/svg" xmlns:xlink="http://www.w3.org/1999/xlink" x="0px" y="0px" viewBox="0 0 512 512"
	 style="enable-background:new 0 0 512 512;" xml:space="preserve">
<style type="text/css">
	.st0{fill:#FFFFFF;}
</style>
<g id="layer1_2_" transform="matrix(1.418485,0,0,1.418485,-507.62367,-651.3318)">
	<path id="path5_1_" class="st0" d="M679.3,552.2c-10.4,4.6-21.5,7.7-33.2,9.1c11.9-7.2,21.1-18.5,25.4-32
		c-11.2,6.6-23.6,11.4-36.7,14c-10.5-11.2-25.6-18.3-42.2-18.3c-32,0-57.9,25.9-57.9,57.9c0,4.5,0.5,8.9,1.5,13.2
		c-48.1-2.4-90.7-25.4-119.2-60.5c-5,8.5-7.8,18.5-7.8,29.1c0,20.1,10.2,37.8,25.7,48.2c-9.5-0.3-18.4-2.9-26.2-7.2
		c0,0.2,0,0.5,0,0.7c0,28,19.9,51.4,46.4,56.7c-4.9,1.3-10,2-15.2,2c-3.7,0-7.4-0.4-10.9-1c7.4,23,28.7,39.7,54,40.2
		c-19.8,15.5-44.7,24.8-71.9,24.8c-4.7,0-9.3-0.3-13.8-0.8c25.6,16.4,56,26,88.7,26c106.4,0,164.6-88.2,164.6-164.6
		c0-2.5-0.1-5-0.2-7.5C661.8,574,671.6,563.8,679.3,552.2L679.3,552.2L679.3,552.2z"/>
</g>
</svg>
