<?xml version="1.0" encoding="utf-8"?>
<!-- Generator: Adobe Illustrator 24.1.1, SVG Export Plug-In . SVG Version: 6.00 Build 0)  -->
<svg version="1.1"
	 id="Layer_1" xmlns:cc="http://creativecommons.org/ns#" xmlns:dc="http://purl.org/dc/elements/1.1/" xmlns:inkscape="http://www.inkscape.org/namespaces/inkscape" xmlns:rdf="http://www.w3.org/1999/02/22-rdf-syntax-ns#" xmlns:sodipodi="http://sodipodi.sourceforge.net/DTD/sodipodi-0.dtd" xmlns:svg="http://www.w3.org/2000/svg"
	 xmlns="http://www.w3.org/2000/svg" xmlns:xlink="http://www.w3.org/1999/xlink" x="0px" y="0px" viewBox="0 0 512 512"
	 style="enable-background:new 0 0 512 512;" xml:space="preserve">
<style type="text/css">
	.st0{fill:#FFFFFF;}
</style>
<path id="YouTube" class="st0" d="M371.3,348.6h-22l0.1-12.8c0-5.7,4.7-10.3,10.3-10.3h1.4c5.7,0,10.4,4.6,10.4,10.3L371.3,348.6z
	 M288.9,321.3c-5.6,0-10.1,3.7-10.1,8.3v62c0,4.6,4.6,8.3,10.1,8.3c5.6,0,10.2-3.7,10.2-8.3v-62C299.1,325,294.5,321.3,288.9,321.3z
	 M422.7,286.6v118c0,28.3-24.5,51.5-54.5,51.5H143.9c-30,0-54.5-23.2-54.5-51.5v-118c0-28.3,24.5-51.5,54.5-51.5h224.3
	C398.1,235.1,422.7,258.3,422.7,286.6L422.7,286.6z M158.8,417.4V293.1l27.8,0v-18.4l-74.1-0.1v18.1l23.1,0.1v124.6L158.8,417.4
	L158.8,417.4z M242.2,311.6H219V378c0,9.6,0.6,14.4,0,16.1c-1.9,5.1-10.4,10.6-13.7,0.6c-0.6-1.8-0.1-7.1-0.1-16.2l-0.1-66.8h-23
	l0.1,65.8c0,10.1-0.2,17.6,0.1,21c0.6,6,0.4,13.1,6,17.1c10.4,7.5,30.4-1.1,35.4-11.9l0,13.7l18.6,0L242.2,311.6L242.2,311.6z
	 M316.3,387.6l0-55.2c0-21-15.8-33.7-37.1-16.6l0.1-41.1l-23.2,0l-0.1,141.7l19-0.3l1.7-8.8C301.1,429.7,316.3,414.4,316.3,387.6
	L316.3,387.6z M388.8,380.3l-17.4,0.1c0,0.7,0,1.5,0,2.4v9.7c0,5.2-4.3,9.4-9.5,9.4h-3.4c-5.2,0-9.5-4.2-9.5-9.4v-1.1v-10.7v-13.8
	h39.8v-15c0-10.9-0.3-21.9-1.2-28.1C384.8,304,357,300.8,343,311c-4.4,3.2-7.8,7.4-9.7,13.1c-2,5.7-3,13.5-3,23.4v32.9
	C330.3,435.1,396.8,427.4,388.8,380.3L388.8,380.3z M299.7,201.5c1.2,2.9,3.1,5.3,5.6,7c2.5,1.8,5.7,2.6,9.5,2.6
	c3.3,0,6.3-0.9,8.9-2.8c2.6-1.9,4.7-4.6,6.5-8.3l-0.4,9.1h25.8V99.3h-20.3v85.5c0,4.6-3.8,8.4-8.5,8.4c-4.6,0-8.5-3.8-8.5-8.4V99.3
	H297v74.1c0,9.4,0.2,15.7,0.4,18.9C297.8,195.5,298.5,198.5,299.7,201.5L299.7,201.5z M221.4,139.4c0-10.5,0.9-18.8,2.6-24.7
	c1.8-5.9,4.9-10.7,9.5-14.3c4.6-3.6,10.4-5.4,17.5-5.4c6,0,11.1,1.2,15.4,3.5c4.3,2.3,7.6,5.3,9.9,9c2.3,3.7,3.9,7.5,4.8,11.4
	c0.9,4,1.3,9.9,1.3,18v27.8c0,10.2-0.4,17.7-1.2,22.4c-0.8,4.8-2.5,9.2-5.1,13.4c-2.6,4.1-5.9,7.2-9.9,9.1c-4.1,2-8.7,2.9-14,2.9
	c-5.9,0-10.8-0.8-14.9-2.5c-4.1-1.7-7.3-4.2-9.5-7.6c-2.3-3.4-3.9-7.5-4.9-12.3c-1-4.8-1.4-12-1.4-21.7L221.4,139.4L221.4,139.4z
	 M241.6,183.1c0,6.2,4.6,11.3,10.3,11.3c5.6,0,10.3-5.1,10.3-11.3v-58.5c0-6.2-4.6-11.3-10.3-11.3c-5.6,0-10.3,5.1-10.3,11.3
	L241.6,183.1L241.6,183.1z M170.1,212.6h24.4l0-84.3l28.8-72.2h-26.7l-15.3,53.6L165.9,56h-26.4l30.6,72.4L170.1,212.6L170.1,212.6z
	"/>
</svg>
