<svg id="Layer_1" data-name="Layer 1" xmlns="http://www.w3.org/2000/svg" viewBox="0 0 138.18 60.89"><defs><style>.cls-1{fill:none;stroke:#404041;stroke-linecap:round;stroke-miterlimit:10;fill-rule:evenodd;}</style></defs><title>cave_logo</title><path class="cls-1" d="M31.29,49.29a18.64,18.64,0,0,0,10.82-3.51c4.43-3.27,6.13-8.06,8.68-12.79C55.05,25.08,59.63,16.72,64,8.56a16.6,16.6,0,0,1,1.93-3.37c2-2.15,6.52-2.29,8.68,0a10.19,10.19,0,0,1,1.33,2" transform="translate(-0.93 -0.93)"/><path class="cls-1" d="M58.36,44.43a33.28,33.28,0,0,1-6.42,8.66A29.47,29.47,0,0,1,35.17,61a31,31,0,0,1-19.76-4.33A29.7,29.7,0,0,1,3.94,43.47,31.39,31.39,0,0,1,2.6,22.7,29.8,29.8,0,0,1,25.15,2.11,30.87,30.87,0,0,1,49.34,7.4a16.76,16.76,0,0,1,4.15,3.95c3.06,5-2.33,10.69-7.52,8.56a12.36,12.36,0,0,1-3.09-2.31A17.85,17.85,0,0,0,31,13.37,17.36,17.36,0,0,0,17,20.77a18.28,18.28,0,0,0-3.45,10.51" transform="translate(-0.93 -0.93)"/><path class="cls-1" d="M105.44,44.05c-2,2.91-3.94,8.38-6.27,11.83-1.56,2.32-4.49,4.57-8.09,2.79-2.08-1-3-3.15-4.24-5.48-5.4-10.17-11.24-21-16.49-31" transform="translate(-0.93 -0.93)"/><path class="cls-1" d="M116,25.39h8.8c2.94,0,6.14-.44,9,.1A6.2,6.2,0,0,1,138.11,29a6.09,6.09,0,0,1-4.33,8.27c-2.54.47-5.84.1-9,.1h-9.06a17.18,17.18,0,0,0,12,11.25,17.47,17.47,0,0,0,3.28.67,15.63,15.63,0,0,1,3.47.39,5.94,5.94,0,0,1,4.05,4.71,6,6,0,0,1-4.82,6.83,11.73,11.73,0,0,1-2,.16" transform="translate(-0.93 -0.93)"/><path class="cls-1" d="M93.9,40.19c3.32-6.1,6.76-12.42,10.09-18.65,1.15-2.13,2.09-4.34,3.38-6.35a29.64,29.64,0,0,1,9.92-9.61,28.78,28.78,0,0,1,15.33-4.14,6,6,0,0,1,5.49,8.37,6.22,6.22,0,0,1-4,3.37,17,17,0,0,1-1.87.32" transform="translate(-0.93 -0.93)"/></svg>